<?xml version="1.0" encoding="UTF-8" standalone="no"?>
<!DOCTYPE svg PUBLIC "-//W3C//DTD SVG 1.1//EN"
 "http://www.w3.org/Graphics/SVG/1.1/DTD/svg11.dtd">
<!-- Generated by graphviz version 2.43.0 (0)
 -->
<!-- Title: G Pages: 1 -->
<svg width="628pt" height="260pt"
 viewBox="0.00 0.00 628.00 260.00" xmlns="http://www.w3.org/2000/svg" xmlns:xlink="http://www.w3.org/1999/xlink">
<g id="graph0" class="graph" transform="scale(1 1) rotate(0) translate(4 256)">
<title>G</title>
<polygon fill="white" stroke="transparent" points="-4,4 -4,-256 624,-256 624,4 -4,4"/>
<!-- if -->
<g id="node1" class="node">
<title>if</title>
<polygon fill="none" stroke="black" points="510,-252 148,-252 148,-216 510,-216 510,-252"/>
<text text-anchor="start" x="279" y="-237.8" font-family="monospace" font-size="14.00">if : Nothing</text>
<text text-anchor="start" x="156" y="-223.8" font-family="monospace" font-size="8.00">(condition type must be Bool, then&#45;clause&#39;s type in this case is Nothing)</text>
<text text-anchor="start" x="485" y="-223.8" font-family="monospace" font-size="14.00">  </text>
</g>
<!-- lt -->
<g id="node2" class="node">
<title>lt</title>
<polygon fill="none" stroke="black" points="314,-180 100,-180 100,-144 314,-144 314,-180"/>
<text text-anchor="start" x="173.5" y="-165.8" font-family="monospace" font-size="14.00">&lt; : Bool</text>
<text text-anchor="start" x="108" y="-151.8" font-family="monospace" font-size="8.00">(operator &lt;&#39;s type is (Int, Int) → Bool)</text>
<text text-anchor="start" x="289" y="-151.8" font-family="monospace" font-size="14.00">  </text>
</g>
<!-- if&#45;&gt;lt -->
<g id="edge1" class="edge">
<title>if&#45;&gt;lt</title>
<path fill="none" stroke="black" d="M299.16,-215.88C283.06,-206.64 263,-195.13 245.71,-185.21"/>
<polygon fill="black" stroke="black" points="247.37,-182.13 236.96,-180.19 243.89,-188.2 247.37,-182.13"/>
</g>
<!-- print_int -->
<g id="node3" class="node">
<title>print_int</title>
<polygon fill="none" stroke="black" points="572.5,-180 331.5,-180 331.5,-144 572.5,-144 572.5,-180"/>
<text text-anchor="start" x="373.5" y="-165.8" font-family="monospace" font-size="14.00">print_int : Nothing</text>
<text text-anchor="start" x="339.5" y="-151.8" font-family="monospace" font-size="8.00">(function print_int&#39;s type is (Int) → Nothing)</text>
<text text-anchor="start" x="547.5" y="-151.8" font-family="monospace" font-size="14.00">  </text>
</g>
<!-- if&#45;&gt;print_int -->
<g id="edge4" class="edge">
<title>if&#45;&gt;print_int</title>
<path fill="none" stroke="black" d="M359.09,-215.88C375.32,-206.64 395.54,-195.13 412.97,-185.21"/>
<polygon fill="black" stroke="black" points="414.84,-188.18 421.8,-180.19 411.37,-182.09 414.84,-188.18"/>
</g>
<!-- ten -->
<g id="node6" class="node">
<title>ten</title>
<polygon fill="none" stroke="black" points="289.5,-108 206.5,-108 206.5,-72 289.5,-72 289.5,-108"/>
<text text-anchor="middle" x="248" y="-86.3" font-family="monospace" font-size="14.00">10 : Int</text>
</g>
<!-- lt&#45;&gt;ten -->
<g id="edge3" class="edge">
<title>lt&#45;&gt;ten</title>
<path fill="none" stroke="black" d="M217.13,-143.7C221.85,-135.64 227.56,-125.89 232.78,-116.98"/>
<polygon fill="black" stroke="black" points="235.95,-118.5 237.98,-108.1 229.91,-114.96 235.95,-118.5"/>
</g>
<!-- a -->
<g id="node7" class="node">
<title>a</title>
<polygon fill="none" stroke="black" points="188,-108 0,-108 0,-72 188,-72 188,-108"/>
<text text-anchor="start" x="65" y="-93.8" font-family="monospace" font-size="14.00">a : Int</text>
<text text-anchor="start" x="8" y="-79.8" font-family="monospace" font-size="8.00">(assuming a is defined to be an Int)</text>
<text text-anchor="start" x="171" y="-79.8" font-family="monospace" font-size="14.00"> </text>
</g>
<!-- lt&#45;&gt;a -->
<g id="edge2" class="edge">
<title>lt&#45;&gt;a</title>
<path fill="none" stroke="black" d="M179.36,-143.88C164.58,-134.72 146.21,-123.34 130.3,-113.48"/>
<polygon fill="black" stroke="black" points="132.09,-110.48 121.75,-108.19 128.41,-116.43 132.09,-110.48"/>
</g>
<!-- times -->
<g id="node4" class="node">
<title>times</title>
<polygon fill="none" stroke="black" points="556.5,-108 347.5,-108 347.5,-72 556.5,-72 556.5,-108"/>
<text text-anchor="start" x="423" y="-93.8" font-family="monospace" font-size="14.00">* : Int</text>
<text text-anchor="start" x="355.5" y="-79.8" font-family="monospace" font-size="8.00">(operator *&#39;s type is (Int, Int) → Int)</text>
<text text-anchor="start" x="531.5" y="-79.8" font-family="monospace" font-size="14.00">  </text>
</g>
<!-- print_int&#45;&gt;times -->
<g id="edge5" class="edge">
<title>print_int&#45;&gt;times</title>
<path fill="none" stroke="black" d="M452,-143.7C452,-135.98 452,-126.71 452,-118.11"/>
<polygon fill="black" stroke="black" points="455.5,-118.1 452,-108.1 448.5,-118.1 455.5,-118.1"/>
</g>
<!-- three -->
<g id="node5" class="node">
<title>three</title>
<polygon fill="none" stroke="black" points="414,-36 340,-36 340,0 414,0 414,-36"/>
<text text-anchor="middle" x="377" y="-14.3" font-family="monospace" font-size="14.00">3 : Int</text>
</g>
<!-- times&#45;&gt;three -->
<g id="edge6" class="edge">
<title>times&#45;&gt;three</title>
<path fill="none" stroke="black" d="M433.46,-71.7C424.2,-63.05 412.84,-52.45 402.74,-43.03"/>
<polygon fill="black" stroke="black" points="405.02,-40.37 395.33,-36.1 400.25,-45.49 405.02,-40.37"/>
</g>
<!-- x -->
<g id="node8" class="node">
<title>x</title>
<polygon fill="none" stroke="black" points="620,-36 432,-36 432,0 620,0 620,-36"/>
<text text-anchor="start" x="497" y="-21.8" font-family="monospace" font-size="14.00">x : Int</text>
<text text-anchor="start" x="440" y="-7.8" font-family="monospace" font-size="8.00">(assuming x is defined to be an Int)</text>
<text text-anchor="start" x="603" y="-7.8" font-family="monospace" font-size="14.00"> </text>
</g>
<!-- times&#45;&gt;x -->
<g id="edge7" class="edge">
<title>times&#45;&gt;x</title>
<path fill="none" stroke="black" d="M470.29,-71.7C479.43,-63.05 490.64,-52.45 500.6,-43.03"/>
<polygon fill="black" stroke="black" points="503.06,-45.52 507.92,-36.1 498.25,-40.43 503.06,-45.52"/>
</g>
</g>
</svg>
