<?xml version="1.0" encoding="UTF-8" standalone="no"?>
<!DOCTYPE svg PUBLIC "-//W3C//DTD SVG 1.1//EN"
 "http://www.w3.org/Graphics/SVG/1.1/DTD/svg11.dtd">
<!-- Generated by graphviz version 2.43.0 (0)
 -->
<!-- Title: G Pages: 1 -->
<svg width="210pt" height="188pt"
 viewBox="0.00 0.00 210.00 188.00" xmlns="http://www.w3.org/2000/svg" xmlns:xlink="http://www.w3.org/1999/xlink">
<g id="graph0" class="graph" transform="scale(1 1) rotate(0) translate(4 184)">
<title>G</title>
<polygon fill="white" stroke="transparent" points="-4,4 -4,-184 206,-184 206,4 -4,4"/>
<!-- plus -->
<g id="node1" class="node">
<title>plus</title>
<polygon fill="none" stroke="black" points="105,-180 51,-180 51,-144 105,-144 105,-180"/>
<text text-anchor="middle" x="78" y="-158.3" font-family="monospace" font-size="14.00">+</text>
</g>
<!-- times -->
<g id="node2" class="node">
<title>times</title>
<polygon fill="none" stroke="black" points="146,-108 92,-108 92,-72 146,-72 146,-108"/>
<text text-anchor="middle" x="119" y="-86.3" font-family="monospace" font-size="14.00">*</text>
</g>
<!-- plus&#45;&gt;times -->
<g id="edge2" class="edge">
<title>plus&#45;&gt;times</title>
<path fill="none" stroke="black" d="M88.13,-143.7C92.85,-135.64 98.56,-125.89 103.78,-116.98"/>
<polygon fill="black" stroke="black" points="106.95,-118.5 108.98,-108.1 100.91,-114.96 106.95,-118.5"/>
</g>
<!-- a -->
<g id="node3" class="node">
<title>a</title>
<polygon fill="none" stroke="black" points="74,-108 0,-108 0,-72 74,-72 74,-108"/>
<text text-anchor="middle" x="37" y="-86.3" font-family="monospace" font-size="14.00">a : Int</text>
</g>
<!-- plus&#45;&gt;a -->
<g id="edge1" class="edge">
<title>plus&#45;&gt;a</title>
<path fill="none" stroke="black" d="M67.87,-143.7C63.15,-135.64 57.44,-125.89 52.22,-116.98"/>
<polygon fill="black" stroke="black" points="55.09,-114.96 47.02,-108.1 49.05,-118.5 55.09,-114.96"/>
</g>
<!-- seven -->
<g id="node4" class="node">
<title>seven</title>
<polygon fill="none" stroke="black" points="110,-36 36,-36 36,0 110,0 110,-36"/>
<text text-anchor="middle" x="73" y="-14.3" font-family="monospace" font-size="14.00">7 : Int</text>
</g>
<!-- times&#45;&gt;seven -->
<g id="edge3" class="edge">
<title>times&#45;&gt;seven</title>
<path fill="none" stroke="black" d="M107.63,-71.7C102.28,-63.56 95.8,-53.69 89.89,-44.7"/>
<polygon fill="black" stroke="black" points="92.66,-42.54 84.24,-36.1 86.81,-46.38 92.66,-42.54"/>
</g>
<!-- b -->
<g id="node5" class="node">
<title>b</title>
<polygon fill="none" stroke="black" points="202,-36 128,-36 128,0 202,0 202,-36"/>
<text text-anchor="middle" x="165" y="-14.3" font-family="monospace" font-size="14.00">b : Int</text>
</g>
<!-- times&#45;&gt;b -->
<g id="edge4" class="edge">
<title>times&#45;&gt;b</title>
<path fill="none" stroke="black" d="M130.37,-71.7C135.72,-63.56 142.2,-53.69 148.11,-44.7"/>
<polygon fill="black" stroke="black" points="151.19,-46.38 153.76,-36.1 145.34,-42.54 151.19,-46.38"/>
</g>
</g>
</svg>
